<?xml version="1.0" encoding="UTF-8" standalone="no"?>
<svg width="582px" height="637px" viewBox="0 0 582 637" version="1.1" xmlns="http://www.w3.org/2000/svg" xmlns:xlink="http://www.w3.org/1999/xlink" xmlns:sketch="http://www.bohemiancoding.com/sketch/ns">
    <!-- Generator: Sketch 3.5.2 (25235) - http://www.bohemiancoding.com/sketch -->
    <title>tableflip.min</title>
    <desc>Created with Sketch.</desc>
    <defs>
        <linearGradient x1="50%" y1="0%" x2="50%" y2="100%" id="linearGradient-1">
            <stop stop-color="#C6C6C6" stop-opacity="0" offset="0%"></stop>
            <stop stop-color="#F0F0F0" offset="100%"></stop>
        </linearGradient>
    </defs>
    <g id="Page-1" stroke="none" stroke-width="1" fill="none" fill-rule="evenodd" sketch:type="MSPage">
        <g id="tableflip.min" sketch:type="MSLayerGroup" transform="translate(12.000000, 12.000000)">
            <g id="Group" sketch:type="MSShapeGroup">
                <path d="M264.14,3.885 C273.437,-1.295 284.887,-1.295 294.183,3.885 L542.98,142.483 C552.275,147.663 558,157.233 558,167.593 L558,444.983 C558,455.341 552.275,464.911 542.98,470.11 L294.182,608.805 C284.886,613.985 273.436,613.985 264.12,608.805 L15.385,470.11 C6.088,464.93 0.364,455.34 0.364,444.982 L0.364,167.592 C0.364,157.232 6.088,147.662 15.404,142.482 L264.14,3.886" id="Shape" stroke="#FFFFFF" stroke-width="23" fill="url(#linearGradient-1)"></path>
                <path d="M510.48,356.068 L510.48,185.825 C510.48,184.69 510.48,183.555 509.937,182.42 L509.937,181.285 C509.392,180.15 509.392,179.583 508.847,178.448 C508.847,178.448 508.847,177.88 508.303,177.88 C507.758,176.745 507.213,176.178 506.123,175.043 L505.58,174.475 C505.035,173.908 503.946,173.341 503.4,172.773 L502.856,172.206 L284.99,58.71 C281.18,56.44 276.82,56.44 273.01,58.71 L55.143,172.206 L54.598,172.773 C53.508,173.341 52.963,173.908 52.418,174.475 L51.874,175.043 C51.329,175.61 50.24,176.745 49.694,177.88 C49.694,177.88 49.694,178.448 49.151,178.448 C48.606,179.015 48.606,180.15 48.061,181.285 L48.061,182.42 C47.517,183.555 47.517,184.69 47.517,185.825 L47.517,356.068 C47.517,364.013 53.507,370.255 61.132,370.255 C68.757,370.255 74.749,364.013 74.749,356.068 L74.749,208.524 L265.379,307.832 L265.379,469.562 C265.379,477.508 271.372,483.75 278.997,483.75 C286.622,483.75 292.614,477.508 292.614,469.563 L292.614,307.833 L483.244,208.523 L483.244,356.07 C483.244,364.015 489.237,370.257 496.862,370.257 C504.487,370.257 510.478,364.015 510.478,356.07 L510.48,356.068 Z M279,283.43 L91.636,185.825 L279,88.22 L466.364,185.825 L279,283.43 L279,283.43 Z" id="Shape" fill="#FFFFFF"></path>
            </g>
        </g>
    </g>
</svg>